<svg width="42" height="42" viewBox="0 0 42 42" fill="none" xmlns="http://www.w3.org/2000/svg">
<path d="M40.3594 19.3594H22.6406V1.64062C22.6406 0.734508 21.9061 0 21 0C20.0939 0 19.3594 0.734508 19.3594 1.64062V19.3594H1.64062C0.734508 19.3594 0 20.0939 0 21C0 21.9061 0.734508 22.6406 1.64062 22.6406H19.3594V40.3594C19.3594 41.2655 20.0939 42 21 42C21.9061 42 22.6406 41.2655 22.6406 40.3594V22.6406H40.3594C41.2655 22.6406 42 21.9061 42 21C42 20.0939 41.2655 19.3594 40.3594 19.3594Z" fill="white"/>
</svg>
